<svg id="visual" viewBox="0 0 900 600" width="900" height="600" xmlns="http://www.w3.org/2000/svg" xmlns:xlink="http://www.w3.org/1999/xlink" version="1.1"><path d="M0 49L39 49L78 49L117 43L157 43L196 43L235 49L274 49L313 43L352 43L391 49L430 43L470 49L509 43L548 49L587 43L626 49L665 49L704 43L743 49L783 49L822 49L861 49L900 49L900 0L861 0L822 0L783 0L743 0L704 0L665 0L626 0L587 0L548 0L509 0L470 0L430 0L391 0L352 0L313 0L274 0L235 0L196 0L157 0L117 0L78 0L39 0L0 0Z" fill="#4facf7"></path><path d="M0 79L39 79L78 85L117 73L157 73L196 73L235 85L274 79L313 79L352 79L391 79L430 73L470 85L509 73L548 79L587 79L626 79L665 79L704 79L743 85L783 79L822 85L861 85L900 79L900 47L861 47L822 47L783 47L743 47L704 41L665 47L626 47L587 41L548 47L509 41L470 47L430 41L391 47L352 41L313 41L274 47L235 47L196 41L157 41L117 41L78 47L39 47L0 47Z" fill="#489ce0"></path><path d="M0 193L39 205L78 199L117 205L157 193L196 193L235 199L274 193L313 193L352 193L391 205L430 193L470 211L509 199L548 199L587 193L626 199L665 193L704 193L743 199L783 205L822 211L861 211L900 211L900 77L861 83L822 83L783 77L743 83L704 77L665 77L626 77L587 77L548 77L509 71L470 83L430 71L391 77L352 77L313 77L274 77L235 83L196 71L157 71L117 71L78 83L39 77L0 77Z" fill="#418cca"></path><path d="M0 223L39 235L78 223L117 235L157 217L196 217L235 229L274 217L313 223L352 223L391 229L430 217L470 241L509 223L548 229L587 217L626 223L665 223L704 217L743 223L783 235L822 235L861 241L900 235L900 209L861 209L822 209L783 203L743 197L704 191L665 191L626 197L587 191L548 197L509 197L470 209L430 191L391 203L352 191L313 191L274 191L235 197L196 191L157 191L117 203L78 197L39 203L0 191Z" fill="#3a7cb4"></path><path d="M0 253L39 265L78 253L117 265L157 247L196 247L235 259L274 247L313 253L352 253L391 259L430 247L470 271L509 253L548 259L587 247L626 253L665 253L704 247L743 253L783 265L822 265L861 271L900 265L900 233L861 239L822 233L783 233L743 221L704 215L665 221L626 221L587 215L548 227L509 221L470 239L430 215L391 227L352 221L313 221L274 215L235 227L196 215L157 215L117 233L78 221L39 233L0 221Z" fill="#336d9f"></path><path d="M0 379L39 367L78 367L117 367L157 355L196 361L235 373L274 361L313 367L352 373L391 361L430 367L470 379L509 361L548 373L587 361L626 361L665 367L704 367L743 367L783 373L822 361L861 379L900 367L900 263L861 269L822 263L783 263L743 251L704 245L665 251L626 251L587 245L548 257L509 251L470 269L430 245L391 257L352 251L313 251L274 245L235 257L196 245L157 245L117 263L78 251L39 263L0 251Z" fill="#2c5e8a"></path><path d="M0 403L39 391L78 391L117 391L157 379L196 385L235 397L274 385L313 391L352 397L391 385L430 391L470 403L509 385L548 397L587 385L626 385L665 391L704 391L743 391L783 397L822 385L861 403L900 391L900 365L861 377L822 359L783 371L743 365L704 365L665 365L626 359L587 359L548 371L509 359L470 377L430 365L391 359L352 371L313 365L274 359L235 371L196 359L157 353L117 365L78 365L39 365L0 377Z" fill="#245076"></path><path d="M0 427L39 415L78 415L117 415L157 403L196 409L235 421L274 409L313 415L352 421L391 409L430 415L470 427L509 409L548 421L587 409L626 409L665 415L704 415L743 415L783 421L822 409L861 427L900 415L900 389L861 401L822 383L783 395L743 389L704 389L665 389L626 383L587 383L548 395L509 383L470 401L430 389L391 383L352 395L313 389L274 383L235 395L196 383L157 377L117 389L78 389L39 389L0 401Z" fill="#1e4262"></path><path d="M0 451L39 439L78 439L117 439L157 427L196 433L235 445L274 433L313 439L352 445L391 433L430 439L470 451L509 433L548 445L587 433L626 433L665 439L704 439L743 439L783 445L822 433L861 451L900 439L900 413L861 425L822 407L783 419L743 413L704 413L665 413L626 407L587 407L548 419L509 407L470 425L430 413L391 407L352 419L313 413L274 407L235 419L196 407L157 401L117 413L78 413L39 413L0 425Z" fill="#173550"></path><path d="M0 499L39 493L78 493L117 499L157 487L196 493L235 499L274 493L313 493L352 499L391 493L430 493L470 499L509 493L548 493L587 487L626 487L665 493L704 493L743 487L783 493L822 487L861 499L900 499L900 437L861 449L822 431L783 443L743 437L704 437L665 437L626 431L587 431L548 443L509 431L470 449L430 437L391 431L352 443L313 437L274 431L235 443L196 431L157 425L117 437L78 437L39 437L0 449Z" fill="#10283d"></path><path d="M0 565L39 559L78 559L117 565L157 559L196 559L235 565L274 565L313 565L352 565L391 565L430 565L470 565L509 559L548 559L587 565L626 559L665 559L704 559L743 565L783 565L822 559L861 565L900 565L900 497L861 497L822 485L783 491L743 485L704 491L665 491L626 485L587 485L548 491L509 491L470 497L430 491L391 491L352 497L313 491L274 491L235 497L196 491L157 485L117 497L78 491L39 491L0 497Z" fill="#0a1c2c"></path><path d="M0 601L39 601L78 601L117 601L157 601L196 601L235 601L274 601L313 601L352 601L391 601L430 601L470 601L509 601L548 601L587 601L626 601L665 601L704 601L743 601L783 601L822 601L861 601L900 601L900 563L861 563L822 557L783 563L743 563L704 557L665 557L626 557L587 563L548 557L509 557L470 563L430 563L391 563L352 563L313 563L274 563L235 563L196 557L157 557L117 563L78 557L39 557L0 563Z" fill="#000e1c"></path></svg>